HIERARCHY
ROOT Hips
{
	OFFSET 0.000000 104.274902 0.000000
	CHANNELS 6 Xposition Yposition Zposition Xrotation Yrotation Zrotation
	JOINT Spine
	{
		OFFSET 0.000000 10.181549 0.131524
		CHANNELS 6 Xposition Yposition Zposition Xrotation Yrotation Zrotation
		JOINT Spine1
		{
			OFFSET 0.000000 9.893990 -1.470706
			CHANNELS 3 Xrotation Yrotation Zrotation
			JOINT Spine2
			{
				OFFSET 0.000000 9.220787 -1.370637
				CHANNELS 3 Xrotation Yrotation Zrotation
				JOINT Neck
				{
					OFFSET 0.000000 16.740372 -2.049022
					CHANNELS 6 Xposition Yposition Zposition Xrotation Yrotation Zrotation
					JOINT Head
					{
						OFFSET 0.000000 9.617859 1.684976
						CHANNELS 6 Xposition Yposition Zposition Xrotation Yrotation Zrotation
						JOINT HeadTop_End
						{
							OFFSET 0.000000 22.037384 7.501072
							CHANNELS 6 Xposition Yposition Zposition Xrotation Yrotation Zrotation
							End Site
							{
								OFFSET 0.000000 23.106567 -2.828246
							}
						}
					}
				}
				JOINT RightShoulder
				{
					OFFSET -4.570000 11.014877 -2.160840
					CHANNELS 6 Xposition Yposition Zposition Xrotation Yrotation Zrotation
					JOINT RightArm
					{
						OFFSET -10.592867 -0.524796 -2.232105
						CHANNELS 3 Xrotation Yrotation Zrotation
						JOINT RightForeArm
						{
							OFFSET -27.841497 0.000000 -0.000002
							CHANNELS 3 Xrotation Yrotation Zrotation
							JOINT RightHand
							{
								OFFSET -28.328812 0.000000 -0.000001
								CHANNELS 3 Xrotation Yrotation Zrotation
								JOINT RightHandThumb1
								{
									OFFSET -2.464798 -1.573990 2.681911
									CHANNELS 6 Xposition Yposition Zposition Xrotation Yrotation Zrotation
									JOINT RightHandThumb2
									{
										OFFSET -3.244781 -1.873383 1.873376
										CHANNELS 3 Xrotation Yrotation Zrotation
										JOINT RightHandThumb3
										{
											OFFSET -2.646263 -1.527817 1.527818
											CHANNELS 6 Xposition Yposition Zposition Xrotation Yrotation Zrotation
											JOINT RightHandThumb4
											{
												OFFSET -1.994591 -1.151581 1.151575
												CHANNELS 6 Xposition Yposition Zposition Xrotation Yrotation Zrotation
												End Site
												{
													OFFSET -1.860176 -1.142715 1.365483
												}
											}
										}
									}
								}
								JOINT RightHandIndex1
								{
									OFFSET -9.108299 -0.517883 2.259803
									CHANNELS 6 Xposition Yposition Zposition Xrotation Yrotation Zrotation
									JOINT RightHandIndex2
									{
										OFFSET -3.699997 0.000000 0.000000
										CHANNELS 3 Xrotation Yrotation Zrotation
										JOINT RightHandIndex3
										{
											OFFSET -2.850006 0.000000 0.000000
											CHANNELS 3 Xrotation Yrotation Zrotation
											JOINT RightHandIndex4
											{
												OFFSET -2.772194 0.000000 0.000000
												CHANNELS 3 Xrotation Yrotation Zrotation
												End Site
												{
													OFFSET -2.772202 0.000000 -0.000484
												}
											}
										}
									}
								}
								JOINT RightHandMiddle1
								{
									OFFSET -9.532501 0.000000 -0.000000
									CHANNELS 6 Xposition Yposition Zposition Xrotation Yrotation Zrotation
									JOINT RightHandMiddle2
									{
										OFFSET -3.699997 0.000000 0.000000
										CHANNELS 3 Xrotation Yrotation Zrotation
										JOINT RightHandMiddle3
										{
											OFFSET -2.949997 0.000000 0.000000
											CHANNELS 3 Xrotation Yrotation Zrotation
											JOINT RightHandMiddle4
											{
												OFFSET -2.946594 0.000000 0.000000
												CHANNELS 3 Xrotation Yrotation Zrotation
												End Site
												{
													OFFSET -2.946602 0.000000 -0.000982
												}
											}
										}
									}
								}
								JOINT RightHandRing1
								{
									OFFSET -9.103600 -0.043106 -1.865100
									CHANNELS 6 Xposition Yposition Zposition Xrotation Yrotation Zrotation
									JOINT RightHandRing2
									{
										OFFSET -3.379303 0.000000 0.000000
										CHANNELS 3 Xrotation Yrotation Zrotation
										JOINT RightHandRing3
										{
											OFFSET -2.889694 0.000000 0.000000
											CHANNELS 3 Xrotation Yrotation Zrotation
											JOINT RightHandRing4
											{
												OFFSET -2.638802 0.000000 0.000000
												CHANNELS 3 Xrotation Yrotation Zrotation
												End Site
												{
													OFFSET -2.638802 0.000000 0.004218
												}
											}
										}
									}
								}
								JOINT RightHandPinky1
								{
									OFFSET -8.076698 -0.486725 -3.806299
									CHANNELS 6 Xposition Yposition Zposition Xrotation Yrotation Zrotation
									JOINT RightHandPinky2
									{
										OFFSET -3.600006 0.000000 0.000000
										CHANNELS 3 Xrotation Yrotation Zrotation
										JOINT RightHandPinky3
										{
											OFFSET -2.099998 0.000000 0.000000
											CHANNELS 3 Xrotation Yrotation Zrotation
											JOINT RightHandPinky4
											{
												OFFSET -2.115791 0.000000 0.000000
												CHANNELS 3 Xrotation Yrotation Zrotation
												End Site
												{
													OFFSET -2.115799 0.000000 0.000174
												}
											}
										}
									}
								}
							}
						}
					}
				}
				JOINT LeftShoulder
				{
					OFFSET 4.570400 11.014679 -2.160816
					CHANNELS 6 Xposition Yposition Zposition Xrotation Yrotation Zrotation
					JOINT LeftArm
					{
						OFFSET 10.592373 -0.524597 -2.232116
						CHANNELS 3 Xrotation Yrotation Zrotation
						JOINT LeftForeArm
						{
							OFFSET 27.841488 0.000000 0.000001
							CHANNELS 3 Xrotation Yrotation Zrotation
							JOINT LeftHand
							{
								OFFSET 28.328808 0.000000 -0.000000
								CHANNELS 3 Xrotation Yrotation Zrotation
								JOINT LeftHandThumb1
								{
									OFFSET 2.466103 -1.576202 2.681698
									CHANNELS 6 Xposition Yposition Zposition Xrotation Yrotation Zrotation
									JOINT LeftHandThumb2
									{
										OFFSET 3.243317 -1.872528 1.872530
										CHANNELS 3 Xrotation Yrotation Zrotation
										JOINT LeftHandThumb3
										{
											OFFSET 2.647881 -1.528763 1.528754
											CHANNELS 6 Xposition Yposition Zposition Xrotation Yrotation Zrotation
											JOINT LeftHandThumb4
											{
												OFFSET 1.998924 -1.154083 1.154080
												CHANNELS 6 Xposition Yposition Zposition Xrotation Yrotation Zrotation
												End Site
												{
													OFFSET 1.884041 -1.149155 1.337651
												}
											}
										}
									}
								}
								JOINT LeftHandIndex1
								{
									OFFSET 9.109299 -0.518005 2.259900
									CHANNELS 6 Xposition Yposition Zposition Xrotation Yrotation Zrotation
									JOINT LeftHandIndex2
									{
										OFFSET 3.699997 0.000000 0.000000
										CHANNELS 3 Xrotation Yrotation Zrotation
										JOINT LeftHandIndex3
										{
											OFFSET 2.850006 0.000000 0.000000
											CHANNELS 3 Xrotation Yrotation Zrotation
											JOINT LeftHandIndex4
											{
												OFFSET 2.774895 0.000000 0.000000
												CHANNELS 3 Xrotation Yrotation Zrotation
												End Site
												{
													OFFSET 2.774902 0.000000 -0.000072
												}
											}
										}
									}
								}
								JOINT LeftHandMiddle1
								{
									OFFSET 9.533401 0.000000 0.000000
									CHANNELS 6 Xposition Yposition Zposition Xrotation Yrotation Zrotation
									JOINT LeftHandMiddle2
									{
										OFFSET 3.699997 0.000000 0.000000
										CHANNELS 3 Xrotation Yrotation Zrotation
										JOINT LeftHandMiddle3
										{
											OFFSET 2.949997 0.000000 0.000000
											CHANNELS 3 Xrotation Yrotation Zrotation
											JOINT LeftHandMiddle4
											{
												OFFSET 2.952896 0.000000 0.000000
												CHANNELS 3 Xrotation Yrotation Zrotation
												End Site
												{
													OFFSET 2.952904 0.000000 0.000165
												}
											}
										}
									}
								}
								JOINT LeftHandRing1
								{
									OFFSET 9.104500 -0.042999 -1.865101
									CHANNELS 6 Xposition Yposition Zposition Xrotation Yrotation Zrotation
									JOINT LeftHandRing2
									{
										OFFSET 3.149994 0.000000 0.000000
										CHANNELS 3 Xrotation Yrotation Zrotation
										JOINT LeftHandRing3
										{
											OFFSET 2.950005 0.000000 0.000000
											CHANNELS 3 Xrotation Yrotation Zrotation
											JOINT LeftHandRing4
											{
												OFFSET 2.644302 0.000000 0.000000
												CHANNELS 3 Xrotation Yrotation Zrotation
												End Site
												{
													OFFSET 2.644302 0.000000 0.000083
												}
											}
										}
									}
								}
								JOINT LeftHandPinky1
								{
									OFFSET 8.077805 -0.486893 -3.806302
									CHANNELS 6 Xposition Yposition Zposition Xrotation Yrotation Zrotation
									JOINT LeftHandPinky2
									{
										OFFSET 3.600006 0.000000 0.000000
										CHANNELS 3 Xrotation Yrotation Zrotation
										JOINT LeftHandPinky3
										{
											OFFSET 2.099998 0.000000 0.000000
											CHANNELS 3 Xrotation Yrotation Zrotation
											JOINT LeftHandPinky4
											{
												OFFSET 2.125496 0.000000 0.000000
												CHANNELS 3 Xrotation Yrotation Zrotation
												End Site
												{
													OFFSET 2.125504 0.000000 -0.001254
												}
											}
										}
									}
								}
							}
						}
					}
				}
			}
		}
	}
	JOINT RightUpLeg
	{
		OFFSET -8.207800 -6.751701 -1.599544
		CHANNELS 6 Xposition Yposition Zposition Xrotation Yrotation Zrotation
		JOINT RightLeg
		{
			OFFSET 0.000004 -44.370152 0.345934
			CHANNELS 3 Xrotation Yrotation Zrotation
			JOINT RightFoot
			{
				OFFSET 0.000004 -44.423664 -3.043535
				CHANNELS 3 Xrotation Yrotation Zrotation
				JOINT RightToeBase
				{
					OFFSET 0.000001 -8.728691 10.710592
					CHANNELS 3 Xrotation Yrotation Zrotation
					JOINT RightToe_End
					{
						OFFSET 0.000000 -0.000665 9.278101
						CHANNELS 3 Xrotation Yrotation Zrotation
						End Site
						{
							OFFSET 0.000000 -0.000665 9.278103
						}
					}
				}
			}
		}
	}
	JOINT LeftUpLeg
	{
		OFFSET 8.207800 -6.751701 -1.599544
		CHANNELS 6 Xposition Yposition Zposition Xrotation Yrotation Zrotation
		JOINT LeftLeg
		{
			OFFSET 0.000004 -44.370037 0.346940
			CHANNELS 3 Xrotation Yrotation Zrotation
			JOINT LeftFoot
			{
				OFFSET 0.000004 -44.423611 -3.044388
				CHANNELS 3 Xrotation Yrotation Zrotation
				JOINT LeftToeBase
				{
					OFFSET 0.000001 -8.728690 10.710592
					CHANNELS 3 Xrotation Yrotation Zrotation
					JOINT LeftToe_End
					{
						OFFSET 0.000000 -0.000680 9.278101
						CHANNELS 3 Xrotation Yrotation Zrotation
						End Site
						{
							OFFSET 0.000000 -0.000680 9.278101
						}
					}
				}
			}
		}
	}
}
MOTION
Frames: 4
Frame Time: 0.033333
4.135389 102.521439 281.361969 -1.769110 5.774996 2.640352 0.000001 10.181552 0.131523 5.869383 -2.905874 -0.808544 0.450116 -0.778381 0.038076 0.450697 -0.777883 0.042102 -0.000000 16.740364 -2.049013 -1.227024 -0.128077 -0.257358 -0.000001 9.617855 1.684991 -3.409996 -3.057189 -2.176882 0.000000 22.037384 7.501102 -0.000000 -0.000000 -0.000000 -4.570004 11.014885 -2.160852 0.828194 -0.493722 16.628408 6.571154 2.080070 64.251521 -0.000009 10.443395 0.000006 8.322001 2.662152 2.714904 -2.464810 -1.574002 2.681938 -8.879574 4.825538 -8.712512 13.897036 -23.167221 -4.852834 -2.646271 -1.527805 1.527820 -5.442636 20.596166 -16.944948 -1.994595 -1.151567 1.151561 0.000001 0.000001 -0.000001 -9.108304 -0.517878 2.259845 0.189638 -3.202633 28.507475 1.491507 -3.417562 47.145302 0.475976 -2.052876 26.104780 0.000000 0.000001 0.000001 -9.532511 0.000008 0.000034 2.514455 -6.756011 42.892038 1.401099 -3.331540 45.609350 0.354501 -1.783886 22.477603 0.000001 -0.000001 -0.000001 -9.103585 -0.043103 -1.865084 5.906807 -9.229516 50.946910 1.193923 -3.115628 41.926754 0.444852 -1.988154 25.222313 -0.000002 -0.000001 -0.000001 -8.076706 -0.486718 -3.806265 2.970154 -7.751810 53.062421 1.482728 -3.409405 46.997770 0.811350 -2.628561 34.302443 0.000001 0.000002 -0.000001 4.570403 11.014717 -2.160817 0.391416 -5.482226 -19.957039 -5.515488 -16.329685 -59.853501 0.000012 -14.647042 0.000014 -0.311535 -9.639627 11.084108 2.466087 -1.576180 2.681680 -2.832545 -1.477250 13.645894 19.287047 19.787692 -7.007190 2.647886 -1.528744 1.528748 -18.690138 -19.070621 13.080639 1.998943 -1.154058 1.154083 -0.000001 0.000002 -0.000001 9.109286 -0.518009 2.259880 -0.813106 1.374948 -22.414946 0.440240 2.230063 -22.333653 0.061814 0.849739 -8.321681 -0.000001 0.000002 -0.000000 9.533410 0.000005 -0.000017 1.393278 6.174839 -31.491086 0.513982 2.401573 -24.158048 0.179694 1.441427 -14.214061 0.000000 0.000000 0.000002 9.104506 -0.042999 -1.865089 2.849516 8.386160 -32.711388 1.064726 3.369430 -35.065498 0.076513 0.944878 -9.261421 -0.000001 -0.000001 -0.000004 8.077789 -0.486891 -3.806320 1.448368 6.351888 -29.243165 0.408964 2.152395 -21.515400 0.159818 1.360545 -13.400782 -0.000002 0.000001 0.000004 -8.207801 -6.751719 -1.599536 -25.883634 -5.269924 -5.763399 42.318571 -9.932390 -2.418116 -0.932177 -0.365175 4.402861 -4.786618 0.000004 0.000003 0.000000 -0.000000 -0.000000 8.207800 -6.751709 -1.599542 -2.875614 5.563435 -6.525712 15.709290 -5.028335 0.006429 -8.380564 -0.749519 5.452825 -2.820926 -0.000000 0.000001 0.000000 0.000000 0.000000 
4.068539 102.245987 285.780304 -1.209384 6.836944 2.783096 -0.000002 10.181554 0.131522 5.687192 -3.893524 -0.795877 0.468940 -1.035947 -0.010057 0.470860 -1.034359 -0.004426 -0.000000 16.740356 -2.048994 -1.299514 -0.067354 -0.283147 -0.000001 9.617853 1.684958 -3.909389 -2.946938 -1.914665 -0.000000 22.037384 7.501096 -0.000000 -0.000000 0.000000 -4.570006 11.014844 -2.160819 0.841652 -0.716996 16.611194 8.549615 0.396376 64.889263 0.000001 10.230377 0.000008 8.905775 2.350749 3.411405 -2.464795 -1.574018 2.681889 -8.879574 4.825540 -8.712512 13.659353 -22.818383 -5.070433 -2.646266 -1.527810 1.527803 -5.421251 20.653585 -17.081924 -1.994568 -1.151585 1.151543 -0.000002 0.000001 -0.000003 -9.108299 -0.517894 2.259792 0.176603 -3.152254 27.114649 1.400463 -3.330931 45.598510 0.440212 -1.978265 25.088186 -0.000001 0.000002 -0.000000 -9.532500 0.000010 -0.000017 2.533971 -6.824982 41.893051 1.351548 -3.282395 44.750522 0.332519 -1.729813 21.760395 0.000001 0.000001 -0.000002 -9.103586 -0.043093 -1.865081 5.935897 -9.329326 50.316122 1.161221 -3.078849 41.321152 0.426278 -1.948251 24.681536 0.000000 -0.000001 0.000000 -8.076703 -0.486705 -3.806270 3.030957 -7.920172 52.238444 1.451087 -3.379667 46.463434 0.789578 -2.596392 33.824852 0.000000 -0.000003 0.000004 4.570406 11.014682 -2.160777 0.333991 -6.179711 -19.809943 -8.101700 -19.745097 -57.444507 -0.000018 -17.050034 -0.000002 -1.552191 -11.448387 11.464768 2.466144 -1.576180 2.681734 -2.832545 -1.477248 13.645896 19.240288 19.689040 -6.943867 2.647878 -1.528772 1.528787 -18.711925 -19.064641 13.063565 1.998943 -1.154086 1.154109 0.000001 -0.000000 -0.000001 9.109322 -0.517994 2.259920 -0.813062 1.369466 -22.379854 0.443809 2.238720 -22.424997 0.062464 0.854290 -8.366665 -0.000001 0.000003 0.000000 9.533415 0.000027 0.000009 1.391787 6.175110 -31.400497 0.513326 2.400142 -24.142644 0.179529 1.440759 -14.207260 0.000005 -0.000001 0.000001 9.104538 -0.042983 -1.865083 2.819039 8.352653 -32.587259 1.063877 3.368229 -35.051308 0.075344 0.937656 -9.189994 0.000000 -0.000002 -0.000002 8.077815 -0.486870 -3.806299 1.419437 6.313252 -28.961416 0.403950 2.139665 -21.381759 0.156242 1.345519 -13.249939 -0.000000 -0.000002 -0.000001 -8.207802 -6.751690 -1.599549 -28.438080 -5.635798 -6.658802 32.738353 -9.948929 -2.110898 -0.502925 -1.641976 5.191871 -4.622613 -0.000011 -0.000000 0.000000 0.000000 0.000000 8.207799 -6.751696 -1.599547 -0.411506 5.739050 -6.213874 15.248601 -6.524201 -0.104433 -10.431373 -0.785225 5.369312 -3.140038 0.000002 -0.000001 0.000000 -0.000000 0.000000 
4.009902 101.669838 290.094269 -0.341725 7.770179 3.024006 -0.000004 10.181557 0.131538 5.188754 -4.636765 -0.852301 0.413834 -1.231131 -0.055208 0.417215 -1.229113 -0.049058 -0.000001 16.740355 -2.049000 -1.334269 -0.019722 -0.347155 -0.000000 9.617861 1.684952 -4.234120 -3.010982 -1.769128 -0.000000 22.037369 7.501078 -0.000000 -0.000000 0.000000 -4.570003 11.014877 -2.160858 0.853538 -1.036862 16.410149 10.341869 -1.216127 65.474405 -0.000006 9.956551 0.000010 10.234607 1.956033 4.039979 -2.464797 -1.573999 2.681915 -8.879577 4.825541 -8.712512 13.581174 -22.703161 -5.141846 -2.646253 -1.527798 1.527855 -5.418974 20.398322 -16.862767 -1.994580 -1.151571 1.151615 -0.000000 -0.000001 -0.000001 -9.108306 -0.517881 2.259810 0.199001 -3.164687 25.438037 1.306835 -3.236727 43.964080 0.385652 -1.857340 23.457907 -0.000001 -0.000001 -0.000000 -9.532499 -0.000005 -0.000001 2.513166 -6.885241 40.310066 1.269538 -3.197673 43.299445 0.292917 -1.627145 20.408394 -0.000001 -0.000001 0.000001 -9.103592 -0.043106 -1.865079 5.908177 -9.471732 48.998063 1.102590 -3.010941 40.217267 0.390947 -1.869526 23.621296 -0.000002 -0.000002 0.000000 -8.076694 -0.486707 -3.806273 3.059754 -8.052631 51.135260 1.404091 -3.334474 45.660873 0.754382 -2.543115 33.039698 0.000001 -0.000001 0.000002 4.570403 11.014700 -2.160782 0.260138 -6.985278 -19.872980 -10.292082 -22.578633 -54.989218 0.000001 -19.407610 -0.000005 -1.627863 -12.304276 12.170766 2.466136 -1.576179 2.681705 -2.832542 -1.477249 13.645897 19.245837 19.699980 -6.952343 2.647878 -1.528768 1.528769 -18.457509 -18.742041 12.801038 1.998947 -1.154058 1.154080 -0.000003 0.000001 0.000000 9.109325 -0.518010 2.259902 -0.822350 1.379316 -22.583474 0.448952 2.251140 -22.556468 0.062176 0.852293 -8.346905 0.000000 0.000002 0.000002 9.533424 0.000009 0.000006 1.405557 6.191870 -31.587508 0.519844 2.414617 -24.297834 0.183747 1.457231 -14.373209 -0.000003 0.000000 0.000001 9.104534 -0.043000 -1.865109 2.779184 8.281201 -32.681810 1.081868 3.393657 -35.356112 0.077214 0.949181 -9.303951 0.000001 0.000001 -0.000000 8.077837 -0.486887 -3.806304 1.412266 6.303984 -28.882452 0.407104 2.147664 -21.465683 0.157086 1.349067 -13.285588 0.000002 -0.000002 -0.000002 -8.207805 -6.751708 -1.599537 -30.165940 -5.871989 -7.559151 21.368339 -9.988675 -1.807820 0.396358 -3.304831 5.752644 -4.597909 0.000002 0.000005 -0.000001 -0.000000 0.000000 8.207801 -6.751705 -1.599545 1.341725 5.709200 -6.064074 15.422465 -7.603577 -0.073452 -12.751196 -0.812661 5.199165 -3.404307 -0.000002 0.000000 -0.000000 -0.000000 0.000000 
3.904700 100.804771 294.545074 0.484145 8.200340 3.503160 -0.000003 10.181549 0.131544 4.505076 -4.967200 -1.227301 0.451596 -1.307297 -0.081512 0.456488 -1.304887 -0.078583 -0.000000 16.740355 -2.049050 -1.404287 -0.001204 -0.410772 0.000000 9.617841 1.685013 -4.538772 -3.220929 -1.745582 0.000000 22.037369 7.501060 -0.000000 -0.000000 -0.000000 -4.570001 11.014889 -2.160849 0.875351 -1.535082 16.214497 11.732701 -2.780098 65.786087 -0.000006 9.563485 0.000007 12.560170 0.901265 4.731775 -2.464789 -1.573999 2.681892 -8.879573 4.825543 -8.712507 13.439999 -22.492042 -5.271327 -2.646272 -1.527785 1.527833 -5.405232 19.910340 -16.433836 -1.994580 -1.151596 1.151535 0.000002 0.000000 -0.000001 -9.108305 -0.517878 2.259804 0.248220 -3.212840 23.503110 1.221852 -3.146361 42.437441 0.321462 -1.701878 21.391389 0.000003 0.000002 0.000000 -9.532488 0.000003 0.000004 2.488819 -6.980814 38.236540 1.163753 -3.081725 41.368342 0.241409 -1.481425 18.509736 0.000000 0.000002 -0.000001 -9.103593 -0.043079 -1.865060 5.855789 -9.659886 47.238603 1.012728 -2.901467 38.474975 0.338581 -1.744957 21.960733 0.000002 -0.000002 0.000000 -8.076695 -0.486711 -3.806306 3.101897 -8.229738 49.458653 1.324560 -3.254972 44.276834 0.690784 -2.442652 31.577802 0.000004 -0.000002 0.000005 4.570403 11.014687 -2.160795 0.200838 -7.596316 -19.970471 -12.355424 -25.145732 -52.978485 0.000003 -21.427881 -0.000003 -2.973132 -11.836108 13.323811 2.466109 -1.576181 2.681725 -2.832542 -1.477248 13.645894 19.251624 19.712261 -6.960055 2.647871 -1.528748 1.528771 -18.196145 -18.421450 12.535188 1.998912 -1.154068 1.154057 0.000000 0.000005 -0.000001 9.109298 -0.518014 2.259925 -0.843152 1.404916 -23.058920 0.458727 2.274520 -22.803970 0.063368 0.860277 -8.425649 -0.000001 -0.000003 0.000000 9.533414 0.000000 0.000022 1.450476 6.250147 -32.043081 0.531805 2.440893 -24.580046 0.190639 1.483937 -14.642609 0.000002 0.000002 0.000000 9.104522 -0.043000 -1.865071 2.749088 8.201441 -33.011554 1.110463 3.433560 -35.836520 0.080751 0.970494 -9.514792 0.000003 -0.000002 -0.000003 8.077848 -0.486888 -3.806264 1.428512 6.326623 -29.024513 0.418830 2.177263 -21.776742 0.161435 1.367237 -13.467984 0.000005 0.000003 0.000002 -8.207805 -6.751712 -1.599530 -31.668958 -5.614359 -8.233480 14.388055 -10.037899 -1.975280 0.324873 -4.297137 7.559802 -4.215976 0.000009 -0.000006 0.000001 0.000002 0.000000 8.207799 -6.751697 -1.599515 3.191407 5.670061 -6.152816 15.765135 -8.189451 -0.014230 -15.269366 -0.806212 4.938848 -3.829514 0.000002 0.000002 -0.000000 0.000000 0.000000 
